<svg id="Layer_1" xmlns="http://www.w3.org/2000/svg" viewBox="0 0 595.8 110.8"><style>.st0{fill:none}.st1{fill:#FFF}.st2{fill:#ffca28}.st3{fill:#004d40}.st4{fill:#9ccc65}</style><path class="st0" d="M283.2 51.6v-5.8c-4 .5-6.5 2-9.1 4.6-3.2 3.2-4.9 7.5-4.9 12.8 0 5.3 1.5 9.6 4.7 12.8 3.2 3.2 6.9 4.8 11.2 4.8 4.3 0 8-1.6 11.2-4.8 3.2-3.2 4.7-7.5 4.7-12.8 0-5.3-1.4-9.6-4.5-12.8-2.5-2.5-5.3-4-8.3-4.6v5.7h-5z"/><path class="st1" d="M73.6 37.3c-7.4 0-13.1 3.1-17 9.4-2.7-6.2-7.9-9.4-15.4-9.4-2.9 0-5.7.8-8.6 2.4-2.9 1.6-5 3.9-6.4 5.9h.1v-6h-10v47h10v-26c0-3.9 1.1-7.4 3.5-10.5 2.4-3.1 5.3-4.6 8.9-4.6 3.7 0 6.8 1 8.6 3.1 1.8 2.1 3.1 5.5 3.1 10.5v27.4h9v-26c0-3.9.8-7.4 3.2-10.5 2.4-3.1 5.2-4.6 8.8-4.6 3.7 0 6 1 7.8 3.1C81 50.6 81.5 54 81.5 59v27.4h10V57.8c0-6.3-1.5-11.3-4.5-15-3.1-3.7-7.6-5.5-13.4-5.5zM177 37.3c-3.3 0-6.3.8-9.2 2.4-2.9 1.6-5 3.9-6.3 5.9h-.3v-6h-8v47h8v-26c0-4 1.3-7.5 3.7-10.5 2.4-3 5.4-4.5 9.2-4.5 8 0 12 4.5 12 13.6v27.4h10V57.8c0-6.2-1.9-11.2-5.1-14.9-3-3.8-8-5.6-14-5.6zM245.2 45.6H243c-1.6-2-3.9-4.4-6.8-6s-6.2-2.4-9.9-2.4c-6.3 0-11.8 2.5-16.3 7.5-4.6 5-6.9 11.2-6.9 18.5 0 7.4 2.3 13.6 6.9 18.5 4.6 5 10 7.5 16.3 7.5 3.7 0 6.9-.9 9.9-2.5s5.2-5.1 6.8-6.1h2.3v5c0 5.2-2.4 9.3-5.3 12.3s-7.3 4.5-12.4 4.5c-3.2 0-6.3-.9-8.8-2.7-2.5-1.8-4.3-4-5.2-6.7l-8.4 3.5c1.6 3.7 4.2 7 7.8 9.9 3.7 2.9 8.4 4.3 14.1 4.3 7 0 13.4-2.2 18.3-6.5 4.8-4.4 7.8-10.7 7.8-19.1V65.6h-10c-.4 4-1.9 7.7-4.4 10.4-3 3.2-6.7 4.8-11 4.8s-7.9-1.6-11-4.8c-3.1-3.2-4.6-7.5-4.6-12.8 0-5.3 1.5-9.6 4.6-12.8 3.1-3.2 6.7-4.8 11-4.8s8 1.2 11 4.3c2.7 2.8 4.2 6.7 4.5 10.7h9.9v-21h-8v6zM288.2 37.4v8.5c3 .5 5.8 2.1 8.3 4.6 3.2 3.2 4.6 7.5 4.6 12.8 0 5.3-1.6 9.6-4.8 12.8-3.2 3.2-6.9 4.8-11.2 4.8-4.3 0-8.1-1.6-11.2-4.8-3.2-3.2-4.7-7.5-4.7-12.8 0-5.3 1.8-9.6 5-12.8 2.6-2.6 5.1-4.1 9.1-4.6v-8.4c-5 .5-11.7 2.9-15.9 7.3-4.7 5-7.2 11.1-7.2 18.6 0 7.4 2.3 13.6 7 18.6 4.7 5 10.7 7.4 18 7.4 7.3 0 13.3-2.5 18-7.4 4.7-4.9 7.1-11.1 7.1-18.6 0-7.4-2.2-13.6-6.9-18.6-4.1-4.4-9.2-6.8-15.2-7.4z"/><path class="st2" d="M332.5 39.7c-2.9 1.7-4.8 5-5.7 6h1.5v-6h-10v47h10V61c0-4.3.6-7.7 3.1-10.3 2.6-2.6 5.1-3.9 8.5-3.9 2.1 0 3.5.2 4.7.7l3.4-8.6c-1.9-.8-4.2-1.5-6.9-1.5-2.8 0-5.7.5-8.6 2.3zM371.9 37.3c-7 0-12.7 2.6-17.2 7.7S348 56.2 348 63.3c0 7.5 2.3 13.7 6.9 18.6 4.6 4.9 10.6 7.4 18 7.4 5.3 0 9.8-1.3 13.5-3.8 3.7-2.6 6.3-5.7 7.9-9.5l-8.2-3.4c-2.3 5.6-6.8 8.4-13.4 8.4-4.1 0-7.6-1.4-10.6-4.3-2.4-2.3-3.9-5.2-4.6-8.7-1-3.3.2-10.5.2-10.5.9-3.6 2.6-6.4 5.1-8.6 2.5-2.1 5.4-3.2 8.8-3.2 4.7 0 8.2.9 10.5 3.4 2.4 2.5 3.6 5.6 3.8 7.6h-23.7c-.9 3-1.4 5-1.2 8h34.5l.1-1.5c0-7.9-2.2-14.1-6.5-18.9-4.1-4.8-9.9-7-17.2-7zM533.3 37.3c-7 0-12.7 2.6-17.2 7.7s-6.7 11.2-6.7 18.3c0 7.5 2.3 13.7 6.9 18.6 4.6 4.9 10.6 7.4 18 7.4 5.3 0 9.8-1.3 13.5-3.8 3.7-2.6 6.3-5.7 7.9-9.5l-8.2-3.4c-2.3 5.6-6.8 8.4-13.4 8.4-4.1 0-7.6-1.4-10.6-4.3s-4.7-6.7-4.9-11.7l.6-7.6c.9-3.6 2.6-6.4 5.1-8.6 2.5-2.1 5.4-3.2 8.8-3.2 4.7 0 8.2.9 10.5 3.4 2.4 2.5 3.6 5.6 3.8 7.6h-23.1c-.6 3-1.3 5-1.2 8h34l.1-1.5c0-7.9-2.2-14.1-6.5-18.9-4.4-4.7-10.2-6.9-17.4-6.9zM588.9 37.7c-2.7 0-5.5.3-8.4 2-2.9 1.7-4.8 5-5.7 6h.5v-6h-9v47h9V61c0-4.3 1-7.7 3.6-10.3 2.6-2.6 5.4-3.9 8.7-3.9 2.1 0 3.6.2 4.8.7l3.5-8.6c-1.9-.8-4.3-1.2-7-1.2z"/><path class="st3" d="M19.7 31.7l-.1-1.2s-3.5-5.4-1.3-12.1C8.6 11.5 0 14.5 0 14.5c6.8 16.3 14.5 18.3 19.7 17.2z"/><path class="st4" d="M19.6 30.5l.1 1.2.3 4.1 2.8 1.3 3.6-7.6C49 16.7 47.5 0 47.5 0c-20 4.8-27.1 12.2-29.2 18.4-2.2 6.7 1.3 12.1 1.3 12.1z"/><path class="st0" d="M111.5 66.3c-2.3 1.9-3.4 4.2-3.4 6.8 0 2.4 1 4.2 3.1 5.6 2.1 1.4 4.4 2 7.1 2 3.8 0 7.2-1.8 10.3-4.6 1.7-1.6 3-2.5 3.7-5.5h-4.1v-5h3.7c-2.5-1-6-2.3-10.4-2.3-4.4.1-7.7 1.1-10 3z"/><path class="st1" d="M133.2 70.6h-.9c-.8 3-2 3.9-3.7 5.5-3.1 2.8-6.5 4.5-10.3 4.5-2.7 0-5-.6-7.1-2-2.1-1.4-3.1-3.2-3.1-5.6 0-2.6 1.1-4.8 3.4-6.7 2.3-1.9 5.6-3 10.1-3 4.4 0 7.9 1.3 10.4 2.3h11.3v-7.4c0-6.6-2.7-11.8-6.8-15.4-4.1-3.7-9.6-5.5-15.9-5.5-5.4 0-10 1.2-13.3 3.7-3.3 2.5-5.6 5.2-6.8 8.1l8.3 3.6c.8-2.2 2.3-3.9 4.4-5.2 2.2-1.3 4.6-1.9 7.2-1.9 3.6 0 6.6 1.1 9.1 3.2 2.5 2.2 3.7 5 3.7 8.6v1.4c-3-2-7.9-3-13.3-3-6 0-11.1 1.5-15.3 4.5-4.1 3-6.2 7.2-6.2 12.5 0 4.9 1.7 8.9 5.2 11.9s8.1 4.5 13.3 4.5c7 0 11.2-3.3 16.2-8.2v5.6h10v-16h-9.9z"/><path class="st0" d="M414.9 66.4c-2.3 1.9-3.4 4.2-3.4 6.8 0 2.4 1 4.3 3.1 5.7 2.1 1.4 4.4 2.1 7.1 2.1 3.8 0 7.2-1.6 10.3-4.4 1.9-1.7 3.1-2.9 3.8-5.9h-5.4v-5H435.6c-2.5-1-5.9-2.3-10.5-2.3-4.6-.1-7.9 1-10.2 3z"/><path class="st2" d="M435.7 70.6c-.7 3-1.9 4.2-3.8 5.9-3.1 2.8-6.5 4.3-10.3 4.3-2.7 0-5-.7-7.1-2.1-2.1-1.4-3.1-3.3-3.1-5.7 0-2.6 1.1-4.8 3.4-6.8 2.3-1.9 5.6-3 10.1-3 4.6 0 7.9 1.3 10.5 2.3H445.3v-7.4c0-6.6-2-11.8-6.1-15.4-4.1-3.7-9.3-5.5-15.5-5.5-5.4 0-9.8 1.2-13.1 3.7-3.3 2.5-5.5 5.2-6.7 8.1l8.4 3.6c.8-2.2 2.3-3.9 4.4-5.2 2.2-1.3 4.6-1.9 7.2-1.9 3.6 0 7.4 1.1 9.9 3.2 2.5 2.2 4.5 5 4.5 8.6v1.4c-4-2-8.7-3-14.1-3-6 0-11.5 1.5-15.7 4.5-4.1 3-6.4 7.2-6.4 12.5 0 4.9 1.6 8.9 5.1 11.9 3.5 3 7.8 4.3 13 4.3 7 0 12.3-3.5 16-8.5h2v6h7v-16h-9.5zM491.9 51.6H501.3v-36h-9.7l1.2 30h-.4c-1.5-2-3.7-4.4-6.6-6-3-1.6-6.3-2.4-10-2.4-6.3 0-11.8 2.5-16.3 7.5-4.6 5-6.9 11.2-6.9 18.5 0 7.4 2.3 13.6 6.9 18.5 4.6 5 10 7.5 16.3 7.5 3.7 0 7.1-.9 10-2.5 3-1.6 5.2-5.1 6.6-6.1h1.9v6h7V58.1c-2 0-6.1 0-9.2.1.4 1.6.6 3.3.6 5.1 0 5.4-1.5 9.7-4.5 12.9-3 3.2-6.7 4.8-11 4.8s-7.9-1.6-11-4.8c-3.1-3.2-4.6-7.5-4.6-12.8 0-5.3 1.5-9.6 4.6-12.8 3.1-3.2 6.7-4.8 11-4.8s8 1.1 11 4.3c.5.5 1.2 1.7 1.7 1.7h2z"/></svg>