<svg xmlns="http://www.w3.org/2000/svg" width="512" height="512" viewBox="0 0 512 512"><path d="M0 262.285c0 23.198 2.17 44.188 6.51 62.967 4.34 18.777 10.35 35.092 18.027 48.946 7.678 13.854 17.442 26.04 29.293 36.554 11.85 10.516 24.703 19.112 38.556 25.788 13.853 6.675 29.668 12.1 47.444 16.273 17.776 4.173 35.928 7.094 54.455 8.764 18.527 1.67 38.89 2.503 61.09 2.503 22.365 0 42.812-.834 61.34-2.503 18.525-1.67 36.72-4.592 54.58-8.764 17.857-4.174 33.756-9.598 47.693-16.273 13.938-6.677 26.873-15.272 38.81-25.788 11.935-10.515 21.78-22.702 29.542-36.554 7.76-13.854 13.81-30.168 18.15-48.946 4.34-18.777 6.51-39.77 6.51-62.967 0-41.395-13.854-77.197-41.56-107.408 1.503-4.006 2.88-8.554 4.132-13.646 1.252-5.09 2.42-12.35 3.504-21.78 1.086-9.432.668-20.32-1.252-32.673-1.918-12.353-5.465-24.953-10.643-37.807l-3.753-.75c-2.672-.5-7.055-.376-13.146.375s-13.185 2.253-21.278 4.507c-8.096 2.253-18.527 6.594-31.297 13.02s-26.248 14.48-40.436 24.16c-24.368-6.677-57.835-10.016-100.397-10.016-42.396 0-75.778 3.34-100.147 10.016-14.188-9.682-27.75-17.734-40.685-24.16S91.8 55.355 84.123 53.102c-7.677-2.253-14.855-3.713-21.53-4.38-6.678-.67-10.893-.877-12.645-.627-1.752.25-3.13.543-4.13.876-5.175 12.855-8.722 25.454-10.64 37.808-1.92 12.352-2.338 23.242-1.253 32.673 1.085 9.43 2.254 16.69 3.505 21.782 1.25 5.092 2.628 9.64 4.13 13.646C13.854 185.088 0 220.89 0 262.285zm62.842 62.842c0-24.035 10.933-46.068 32.798-66.097 6.51-6.012 14.104-10.56 22.783-13.646 8.68-3.09 18.485-4.84 29.418-5.26 10.934-.416 21.407-.333 31.422.252 10.014.584 22.366 1.377 37.054 2.378 14.688 1.002 27.374 1.502 38.056 1.502 10.683 0 23.368-.5 38.056-1.502 14.69-1 27.04-1.794 37.057-2.378 10.014-.585 20.486-.668 31.42-.25 10.934.417 20.738 2.17 29.42 5.258 8.678 3.088 16.27 7.635 22.78 13.646 21.866 19.695 32.8 41.728 32.8 66.097 0 14.354-1.795 27.08-5.385 38.182-3.588 11.1-8.178 20.404-13.77 27.914-5.593 7.51-13.353 13.896-23.284 19.153-9.932 5.258-19.61 9.305-29.04 12.146-9.433 2.837-21.534 5.05-36.306 6.635-14.773 1.586-27.96 2.546-39.56 2.88-11.6.333-26.33.5-44.188.5-17.86 0-32.59-.167-44.19-.5-11.6-.334-24.786-1.294-39.557-2.88s-26.872-3.798-36.303-6.635c-9.43-2.84-19.11-6.89-29.042-12.146-9.93-5.257-17.693-11.64-23.284-19.153-5.59-7.51-10.182-16.813-13.77-27.915-3.59-11.102-5.384-23.83-5.384-38.183zM320 320.08c0 26.51 14.326 48 32 48s32-21.49 32-48-14.326-48-32-48-32 21.49-32 48zm-192 0c0 26.51 14.327 48 32 48s32-21.49 32-48-14.327-48-32-48-32 21.49-32 48z"/></svg>