<?xml version="1.0" encoding="utf-8"?>
<!-- Generator: Adobe Illustrator 19.1.0, SVG Export Plug-In . SVG Version: 6.00 Build 0)  -->
<svg version="1.1" id="Layer_1" xmlns="http://www.w3.org/2000/svg" xmlns:xlink="http://www.w3.org/1999/xlink" x="0px" y="0px"
	 viewBox="0 0 595.8 110.8" style="enable-background:new 0 0 595.8 110.8;" xml:space="preserve">
<style type="text/css">
	.st0{fill:none;}
	.st1{fill:#FFFFFF;}
	.st2{fill:#FFCA28;}
	.st3{fill:#004D40;}
	.st4{fill:#9CCC65;}
</style>
<g>
	<path class="st0" d="M283.2,51.6v-5.8c-4,0.5-6.5,2-9.1,4.6c-3.2,3.2-4.9,7.5-4.9,12.8c0,5.3,1.5,9.6,4.7,12.8
		c3.2,3.2,6.9,4.8,11.2,4.8c4.3,0,8-1.6,11.2-4.8c3.2-3.2,4.7-7.5,4.7-12.8c0-5.3-1.4-9.6-4.5-12.8c-2.5-2.5-5.3-4-8.3-4.6v5.7
		H283.2z"/>
	<path class="st1" d="M73.6,37.3c-7.4,0-13.1,3.1-17,9.4c-2.7-6.2-7.9-9.4-15.4-9.4c-2.9,0-5.7,0.8-8.6,2.4c-2.9,1.6-5,3.9-6.4,5.9
		h0.1v-6h-10v47h10v-26c0-3.9,1.1-7.4,3.5-10.5c2.4-3.1,5.3-4.6,8.9-4.6c3.7,0,6.8,1,8.6,3.1c1.8,2.1,3.1,5.5,3.1,10.5v27.4h9v-26
		c0-3.9,0.8-7.4,3.2-10.5c2.4-3.1,5.2-4.6,8.8-4.6c3.7,0,6,1,7.8,3.1c1.8,2.1,2.3,5.5,2.3,10.5v27.4h10V57.8c0-6.3-1.5-11.3-4.5-15
		C83.9,39.1,79.4,37.3,73.6,37.3z"/>
	<path class="st1" d="M177,37.3c-3.3,0-6.3,0.8-9.2,2.4c-2.9,1.6-5,3.9-6.3,5.9h-0.3v-6h-8v47h8v-26c0-4,1.3-7.5,3.7-10.5
		c2.4-3,5.4-4.5,9.2-4.5c8,0,12,4.5,12,13.6v27.4h10V57.8c0-6.2-1.9-11.2-5.1-14.9C188,39.1,183,37.3,177,37.3z"/>
	<path class="st1" d="M245.2,45.6H243c-1.6-2-3.9-4.4-6.8-6s-6.2-2.4-9.9-2.4c-6.3,0-11.8,2.5-16.3,7.5c-4.6,5-6.9,11.2-6.9,18.5
		c0,7.4,2.3,13.6,6.9,18.5c4.6,5,10,7.5,16.3,7.5c3.7,0,6.9-0.9,9.9-2.5s5.2-5.1,6.8-6.1h2.3v5c0,5.2-2.4,9.3-5.3,12.3
		c-2.9,3-7.3,4.5-12.4,4.5c-3.2,0-6.3-0.9-8.8-2.7c-2.5-1.8-4.3-4-5.2-6.7l-8.4,3.5c1.6,3.7,4.2,7,7.8,9.9c3.7,2.9,8.4,4.3,14.1,4.3
		c7,0,13.4-2.2,18.3-6.5c4.8-4.4,7.8-10.7,7.8-19.1V65.6h-10c-0.4,4-1.9,7.7-4.4,10.4c-3,3.2-6.7,4.8-11,4.8c-4.3,0-7.9-1.6-11-4.8
		c-3.1-3.2-4.6-7.5-4.6-12.8c0-5.3,1.5-9.6,4.6-12.8c3.1-3.2,6.7-4.8,11-4.8c4.3,0,8,1.2,11,4.3c2.7,2.8,4.2,6.7,4.5,10.7h9.9v-21
		h-8V45.6z"/>
	<path class="st1" d="M288.2,37.4v8.5c3,0.5,5.8,2.1,8.3,4.6c3.2,3.2,4.6,7.5,4.6,12.8c0,5.3-1.6,9.6-4.8,12.8
		c-3.2,3.2-6.9,4.8-11.2,4.8c-4.3,0-8.1-1.6-11.2-4.8c-3.2-3.2-4.7-7.5-4.7-12.8c0-5.3,1.8-9.6,5-12.8c2.6-2.6,5.1-4.1,9.1-4.6v-8.4
		c-5,0.5-11.7,2.9-15.9,7.3c-4.7,5-7.2,11.1-7.2,18.6c0,7.4,2.3,13.6,7,18.6c4.7,5,10.7,7.4,18,7.4c7.3,0,13.3-2.5,18-7.4
		c4.7-4.9,7.1-11.1,7.1-18.6c0-7.4-2.2-13.6-6.9-18.6C299.3,40.4,294.2,38,288.2,37.4z"/>
	<path class="st2" d="M332.5,39.7c-2.9,1.7-4.8,5-5.7,6h1.5v-6h-10v47h10V61c0-4.3,0.6-7.7,3.1-10.3c2.6-2.6,5.1-3.9,8.5-3.9
		c2.1,0,3.5,0.2,4.7,0.7l3.4-8.6c-1.9-0.8-4.2-1.5-6.9-1.5C338.3,37.4,335.4,37.9,332.5,39.7z"/>
	<path class="st2" d="M371.9,37.3c-7,0-12.7,2.6-17.2,7.7c-4.5,5.1-6.7,11.2-6.7,18.3c0,7.5,2.3,13.7,6.9,18.6
		c4.6,4.9,10.6,7.4,18,7.4c5.3,0,9.8-1.3,13.5-3.8c3.7-2.6,6.3-5.7,7.9-9.5l-8.2-3.4c-2.3,5.6-6.8,8.4-13.4,8.4
		c-4.1,0-7.6-1.4-10.6-4.3c-2.4-2.3-3.9-5.2-4.6-8.7c-1-3.3,0.2-10.5,0.2-10.5c0.9-3.6,2.6-6.4,5.1-8.6c2.5-2.1,5.4-3.2,8.8-3.2
		c4.7,0,8.2,0.9,10.5,3.4c2.4,2.5,3.6,5.6,3.8,7.6h-23.7c-0.9,3-1.4,5-1.2,8h34.5l0.1-1.5c0-7.9-2.2-14.1-6.5-18.9
		C385,39.5,379.2,37.3,371.9,37.3z"/>
	<path class="st2" d="M533.3,37.3c-7,0-12.7,2.6-17.2,7.7c-4.5,5.1-6.7,11.2-6.7,18.3c0,7.5,2.3,13.7,6.9,18.6
		c4.6,4.9,10.6,7.4,18,7.4c5.3,0,9.8-1.3,13.5-3.8c3.7-2.6,6.3-5.7,7.9-9.5l-8.2-3.4c-2.3,5.6-6.8,8.4-13.4,8.4
		c-4.1,0-7.6-1.4-10.6-4.3c-3-2.9-4.7-6.7-4.9-11.7l0.6-7.6c0.9-3.6,2.6-6.4,5.1-8.6c2.5-2.1,5.4-3.2,8.8-3.2
		c4.7,0,8.2,0.9,10.5,3.4c2.4,2.5,3.6,5.6,3.8,7.6h-23.1c-0.6,3-1.3,5-1.2,8h34l0.1-1.5c0-7.9-2.2-14.1-6.5-18.9
		C546.3,39.5,540.5,37.3,533.3,37.3z"/>
	<path class="st2" d="M588.9,37.7c-2.7,0-5.5,0.3-8.4,2c-2.9,1.7-4.8,5-5.7,6h0.5v-6h-9v47h9V61c0-4.3,1-7.7,3.6-10.3
		c2.6-2.6,5.4-3.9,8.7-3.9c2.1,0,3.6,0.2,4.8,0.7l3.5-8.6C594,38.1,591.6,37.7,588.9,37.7z"/>
	<path class="st3" d="M19.7,31.7l-0.1-1.2c0,0-3.5-5.4-1.3-12.1C8.6,11.5,0,14.5,0,14.5C6.8,30.8,14.5,32.8,19.7,31.7z"/>
	<path class="st4" d="M19.6,30.5l0.1,1.2l0.3,4.1l2.8,1.3l3.6-7.6C49,16.7,47.5,0,47.5,0c-20,4.8-27.1,12.2-29.2,18.4
		C16.1,25.1,19.6,30.5,19.6,30.5z"/>
	<g>
		<path class="st0" d="M111.5,66.3c-2.3,1.9-3.4,4.2-3.4,6.8c0,2.4,1,4.2,3.1,5.6c2.1,1.4,4.4,2,7.1,2c3.8,0,7.2-1.8,10.3-4.6
			c1.7-1.6,3-2.5,3.7-5.5h-4.1v-5h3.7c-2.5-1-6-2.3-10.4-2.3C117.1,63.4,113.8,64.4,111.5,66.3z"/>
		<path class="st1" d="M133.2,70.6h-0.9c-0.8,3-2,3.9-3.7,5.5c-3.1,2.8-6.5,4.5-10.3,4.5c-2.7,0-5-0.6-7.1-2
			c-2.1-1.4-3.1-3.2-3.1-5.6c0-2.6,1.1-4.8,3.4-6.7c2.3-1.9,5.6-3,10.1-3c4.4,0,7.9,1.3,10.4,2.3h1.3h8.5h1.5v-7.4
			c0-6.6-2.7-11.8-6.8-15.4c-4.1-3.7-9.6-5.5-15.9-5.5c-5.4,0-10,1.2-13.3,3.7c-3.3,2.5-5.6,5.2-6.8,8.1l8.3,3.6
			c0.8-2.2,2.3-3.9,4.4-5.2c2.2-1.3,4.6-1.9,7.2-1.9c3.6,0,6.6,1.1,9.1,3.2c2.5,2.2,3.7,5,3.7,8.6v1.4c-3-2-7.9-3-13.3-3
			c-6,0-11.1,1.5-15.3,4.5c-4.1,3-6.2,7.2-6.2,12.5c0,4.9,1.7,8.9,5.2,11.9c3.5,3,8.1,4.5,13.3,4.5c7,0,11.2-3.3,16.2-8.2v5.6h10
			v-16h-1.6H133.2z"/>
		<g>
			<path class="st0" d="M414.9,66.4c-2.3,1.9-3.4,4.2-3.4,6.8c0,2.4,1,4.3,3.1,5.7c2.1,1.4,4.4,2.1,7.1,2.1c3.8,0,7.2-1.6,10.3-4.4
				c1.9-1.7,3.1-2.9,3.8-5.9h-0.1h-0.9h-4.4v-5h4.1h1.1c-2.5-1-5.9-2.3-10.5-2.3C420.5,63.3,417.2,64.4,414.9,66.4z"/>
			<path class="st2" d="M435.7,70.6c-0.7,3-1.9,4.2-3.8,5.9c-3.1,2.8-6.5,4.3-10.3,4.3c-2.7,0-5-0.7-7.1-2.1
				c-2.1-1.4-3.1-3.3-3.1-5.7c0-2.6,1.1-4.8,3.4-6.8c2.3-1.9,5.6-3,10.1-3c4.6,0,7.9,1.3,10.5,2.3h0.2h8.5h1.2v-7.4
				c0-6.6-2-11.8-6.1-15.4c-4.1-3.7-9.3-5.5-15.5-5.5c-5.4,0-9.8,1.2-13.1,3.7c-3.3,2.5-5.5,5.2-6.7,8.1l8.4,3.6
				c0.8-2.2,2.3-3.9,4.4-5.2c2.2-1.3,4.6-1.9,7.2-1.9c3.6,0,7.4,1.1,9.9,3.2c2.5,2.2,4.5,5,4.5,8.6v1.4c-4-2-8.7-3-14.1-3
				c-6,0-11.5,1.5-15.7,4.5c-4.1,3-6.4,7.2-6.4,12.5c0,4.9,1.6,8.9,5.1,11.9c3.5,3,7.8,4.3,13,4.3c7,0,12.3-3.5,16-8.5h2v6h7v-16
				H444H435.7z"/>
			<g>
				<path class="st2" d="M491.9,51.6h0.2h8.5h0.7v-36h-9.7l1.2,30h-0.4c-1.5-2-3.7-4.4-6.6-6c-3-1.6-6.3-2.4-10-2.4
					c-6.3,0-11.8,2.5-16.3,7.5c-4.6,5-6.9,11.2-6.9,18.5c0,7.4,2.3,13.6,6.9,18.5c4.6,5,10,7.5,16.3,7.5c3.7,0,7.1-0.9,10-2.5
					c3-1.6,5.2-5.1,6.6-6.1h1.9v6h7V58.1c-2,0-6.1,0-9.2,0.1c0.4,1.6,0.6,3.3,0.6,5.1c0,5.4-1.5,9.7-4.5,12.9c-3,3.2-6.7,4.8-11,4.8
					c-4.3,0-7.9-1.6-11-4.8c-3.1-3.2-4.6-7.5-4.6-12.8c0-5.3,1.5-9.6,4.6-12.8c3.1-3.2,6.7-4.8,11-4.8c4.3,0,8,1.1,11,4.3
					c0.5,0.5,1.2,1.7,1.7,1.7h0.9H491.9z"/>
			</g>
		</g>
	</g>
</g>
</svg>
